<svg width="610" height="405" viewBox="0 0 610 405" fill="none" xmlns="http://www.w3.org/2000/svg">
<path fill-rule="evenodd" clip-rule="evenodd" d="M280.311 1.87299C279.668 2.90299 275.206 11.341 270.396 20.623C265.586 29.905 259.078 42.45 255.933 48.5C252.789 54.55 247.014 65.8 243.101 73.5C239.187 81.2 234.02 91.131 231.618 95.568C229.216 100.005 226.938 104.619 226.557 105.821L225.863 108.006L390.682 107.753L555.5 107.5L561.5 95.729C564.8 89.255 573.124 72.83 579.997 59.229C586.87 45.628 592.72 34.275 592.997 34C593.274 33.725 594.461 31.475 595.635 29C598.815 22.298 602.516 14.946 605.759 8.89203C607.347 5.92603 608.937 2.712 609.292 1.75C609.905 0.0880001 601.696 0 445.709 0C286.27 0 281.447 0.0549859 280.311 1.87299ZM53.908 151.25C53.078 153.038 49.317 160.35 45.551 167.5C38.674 180.556 30.339 196.639 16.011 224.5C11.769 232.75 6.42999 243.009 4.14899 247.298C1.86699 251.586 0 255.299 0 255.548C0 255.796 74.213 256 164.919 256H329.838L337.266 241.25C341.352 233.138 351.805 212.55 360.494 195.5C381.149 154.971 384 149.28 384 148.583C384 148.262 310.069 148 219.708 148H55.417L53.908 151.25ZM118.394 305.75C115.615 311.112 109.602 322.7 105.031 331.5C100.459 340.3 93.018 354.7 88.495 363.5C83.972 372.3 77.51 384.788 74.135 391.252C70.761 397.715 68 403.454 68 404.005C68 404.67 123.271 404.921 232.694 404.753L397.389 404.5L405.49 388.5C409.945 379.7 421.836 356.3 431.914 336.5C441.992 316.7 450.623 299.487 451.094 298.25L451.95 296H287.698H123.446L118.394 305.75Z" fill="black"/>
</svg>
